<svg width="8" height="6" viewBox="0 0 8 6" fill="none" xmlns="http://www.w3.org/2000/svg">
<path d="M7.85365 0.145978C7.90022 0.192424 7.93716 0.247599 7.96237 0.308345C7.98757 0.36909 8.00055 0.434211 8.00055 0.499978C8.00055 0.565746 7.98757 0.630867 7.96237 0.691612C7.93716 0.752357 7.90022 0.807533 7.85365 0.853978L3.35366 5.35398C3.30721 5.40054 3.25203 5.43748 3.19129 5.46269C3.13054 5.4879 3.06542 5.50087 2.99966 5.50087C2.93389 5.50087 2.86877 5.4879 2.80802 5.46269C2.74728 5.43748 2.6921 5.40054 2.64565 5.35398L0.645655 3.35398C0.551768 3.26009 0.499023 3.13275 0.499023 2.99998C0.499023 2.8672 0.551768 2.73986 0.645655 2.64598C0.739542 2.55209 0.866879 2.49935 0.999655 2.49935C1.13243 2.49935 1.25977 2.55209 1.35366 2.64598L2.99966 4.29298L7.14565 0.145978C7.1921 0.099415 7.24728 0.0624722 7.30802 0.0372658C7.36877 0.0120593 7.43389 -0.000915527 7.49965 -0.000915527C7.56542 -0.000915527 7.63054 0.0120593 7.69129 0.0372658C7.75203 0.0624722 7.80721 0.099415 7.85365 0.145978Z" fill="#7B7B7B"/>
</svg>
