<svg width="29" height="29" viewBox="0 0 29 29" fill="none" xmlns="http://www.w3.org/2000/svg">
<path d="M14.5 0C6.49187 0 0 6.49187 0 14.5C0 22.5081 6.49187 29 14.5 29C22.5081 29 29 22.5081 29 14.5C29 6.49187 22.5081 0 14.5 0ZM17.9692 5.41802C19.1085 5.42853 20.181 5.93937 21.1889 6.94731C22.3082 8.09301 22.9506 9.55593 22.5324 11.2467C22.2935 12.1426 21.7273 13.058 20.8314 13.9938C18.1176 16.6554 15.6773 19.135 12.5583 22.2368C11.9617 22.8229 10.8958 23.5385 9.81123 23.582C8.90919 23.5749 8.18199 23.204 7.5102 22.5359C6.79552 21.8121 6.26702 20.8709 6.34554 19.6986C6.44508 18.8623 6.85362 18.086 7.5704 17.3692L14.5301 10.4113C15.5587 9.39172 17.0064 8.60251 18.3817 9.78291C19.6252 11.0711 18.8309 12.4655 17.725 13.6061L11.3034 19.9977L10.0785 18.7427L16.4701 12.3512C16.762 12.058 17.3585 11.5454 17.1267 11.0077C16.8247 10.7351 16.1012 11.3459 15.7833 11.6644L8.82533 18.6241C8.47735 18.9746 8.17474 19.343 8.10847 19.8773C8.04873 20.3352 8.25722 20.8031 8.73507 21.2809C9.66145 22.1401 10.3062 21.8947 11.3033 20.9835C13.9565 18.3303 16.0858 16.2242 18.8153 13.5016C19.7126 12.6043 20.3611 12.0388 20.8314 10.7988C21.2023 9.40122 19.767 7.41421 18.1427 7.1862C17.0766 7.08673 16.147 7.78669 15.3656 8.52965L7.74914 16.1443L6.49598 14.9213L14.1106 7.27479C15.3052 6.10013 16.5147 5.48308 17.7391 5.42336C17.8157 5.41962 17.8933 5.41735 17.9692 5.41802Z" fill="#CB0A0A"/>
</svg>
