<svg width="29" height="29" viewBox="0 0 29 29" fill="none" xmlns="http://www.w3.org/2000/svg">
<rect x="0.5" y="0.5" width="28" height="28" rx="4.5" stroke="#232323"/>
<rect x="0.5" y="0.5" width="28" height="28" rx="4.5" stroke="#232323"/>
<path d="M6.09961 7.6751C6.09961 7.25738 6.26555 6.85677 6.56092 6.5614C6.85629 6.26603 7.25689 6.1001 7.67461 6.1001H8.72461C9.14233 6.1001 9.54293 6.26603 9.8383 6.5614C10.1337 6.85677 10.2996 7.25738 10.2996 7.6751V8.7251C10.2996 9.14281 10.1337 9.54342 9.8383 9.83879C9.54293 10.1342 9.14233 10.3001 8.72461 10.3001H7.67461C7.25689 10.3001 6.85629 10.1342 6.56092 9.83879C6.26555 9.54342 6.09961 9.14281 6.09961 8.7251V7.6751ZM7.67461 7.1501C7.53537 7.1501 7.40183 7.20541 7.30338 7.30387C7.20492 7.40232 7.14961 7.53586 7.14961 7.6751V8.7251C7.14961 8.86434 7.20492 8.99787 7.30338 9.09633C7.40183 9.19479 7.53537 9.2501 7.67461 9.2501H8.72461C8.86385 9.2501 8.99738 9.19479 9.09584 9.09633C9.1943 8.99787 9.24961 8.86434 9.24961 8.7251V7.6751C9.24961 7.53586 9.1943 7.40232 9.09584 7.30387C8.99738 7.20541 8.86385 7.1501 8.72461 7.1501H7.67461ZM6.09961 13.9751C6.09961 13.5574 6.26555 13.1568 6.56092 12.8614C6.85629 12.566 7.25689 12.4001 7.67461 12.4001H8.72461C9.14233 12.4001 9.54293 12.566 9.8383 12.8614C10.1337 13.1568 10.2996 13.5574 10.2996 13.9751V15.0251C10.2996 15.4428 10.1337 15.8434 9.8383 16.1388C9.54293 16.4342 9.14233 16.6001 8.72461 16.6001H7.67461C7.25689 16.6001 6.85629 16.4342 6.56092 16.1388C6.26555 15.8434 6.09961 15.4428 6.09961 15.0251V13.9751ZM7.67461 13.4501C7.53537 13.4501 7.40183 13.5054 7.30338 13.6039C7.20492 13.7023 7.14961 13.8359 7.14961 13.9751V15.0251C7.14961 15.1643 7.20492 15.2979 7.30338 15.3963C7.40183 15.4948 7.53537 15.5501 7.67461 15.5501H8.72461C8.86385 15.5501 8.99738 15.4948 9.09584 15.3963C9.1943 15.2979 9.24961 15.1643 9.24961 15.0251V13.9751C9.24961 13.8359 9.1943 13.7023 9.09584 13.6039C8.99738 13.5054 8.86385 13.4501 8.72461 13.4501H7.67461ZM6.09961 20.2751C6.09961 19.8574 6.26555 19.4568 6.56092 19.1614C6.85629 18.866 7.25689 18.7001 7.67461 18.7001H8.72461C9.14233 18.7001 9.54293 18.866 9.8383 19.1614C10.1337 19.4568 10.2996 19.8574 10.2996 20.2751V21.3251C10.2996 21.7428 10.1337 22.1434 9.8383 22.4388C9.54293 22.7342 9.14233 22.9001 8.72461 22.9001H7.67461C7.25689 22.9001 6.85629 22.7342 6.56092 22.4388C6.26555 22.1434 6.09961 21.7428 6.09961 21.3251V20.2751ZM7.67461 19.7501C7.53537 19.7501 7.40183 19.8054 7.30338 19.9039C7.20492 20.0023 7.14961 20.1359 7.14961 20.2751V21.3251C7.14961 21.4643 7.20492 21.5979 7.30338 21.6963C7.40183 21.7948 7.53537 21.8501 7.67461 21.8501H8.72461C8.86385 21.8501 8.99738 21.7948 9.09584 21.6963C9.1943 21.5979 9.24961 21.4643 9.24961 21.3251V20.2751C9.24961 20.1359 9.1943 20.0023 9.09584 19.9039C8.99738 19.8054 8.86385 19.7501 8.72461 19.7501H7.67461ZM12.3996 8.7251C12.3996 8.58586 12.4549 8.45232 12.5534 8.35387C12.6518 8.25541 12.7854 8.2001 12.9246 8.2001H22.3746C22.5138 8.2001 22.6474 8.25541 22.7458 8.35387C22.8443 8.45232 22.8996 8.58586 22.8996 8.7251C22.8996 8.86434 22.8443 8.99787 22.7458 9.09633C22.6474 9.19479 22.5138 9.2501 22.3746 9.2501H12.9246C12.7854 9.2501 12.6518 9.19479 12.5534 9.09633C12.4549 8.99787 12.3996 8.86434 12.3996 8.7251ZM12.3996 15.0251C12.3996 14.8859 12.4549 14.7523 12.5534 14.6539C12.6518 14.5554 12.7854 14.5001 12.9246 14.5001H22.3746C22.5138 14.5001 22.6474 14.5554 22.7458 14.6539C22.8443 14.7523 22.8996 14.8859 22.8996 15.0251C22.8996 15.1643 22.8443 15.2979 22.7458 15.3963C22.6474 15.4948 22.5138 15.5501 22.3746 15.5501H12.9246C12.7854 15.5501 12.6518 15.4948 12.5534 15.3963C12.4549 15.2979 12.3996 15.1643 12.3996 15.0251ZM12.3996 21.3251C12.3996 21.1859 12.4549 21.0523 12.5534 20.9539C12.6518 20.8554 12.7854 20.8001 12.9246 20.8001H22.3746C22.5138 20.8001 22.6474 20.8554 22.7458 20.9539C22.8443 21.0523 22.8996 21.1859 22.8996 21.3251C22.8996 21.4643 22.8443 21.5979 22.7458 21.6963C22.6474 21.7948 22.5138 21.8501 22.3746 21.8501H12.9246C12.7854 21.8501 12.6518 21.7948 12.5534 21.6963C12.4549 21.5979 12.3996 21.4643 12.3996 21.3251Z" fill="#232323"/>
</svg>
