<svg width="29" height="29" viewBox="0 0 29 29" fill="none" xmlns="http://www.w3.org/2000/svg">
<rect x="0.5" y="0.5" width="28" height="28" rx="5.5" stroke="#232323"/>
<rect x="0.5" y="0.5" width="28" height="28" rx="5.5" stroke="#232323"/>
<path d="M5.3125 7.28125C5.3125 6.75911 5.51992 6.25835 5.88913 5.88913C6.25835 5.51992 6.75911 5.3125 7.28125 5.3125H11.2188C11.7409 5.3125 12.2417 5.51992 12.6109 5.88913C12.9801 6.25835 13.1875 6.75911 13.1875 7.28125V11.2188C13.1875 11.7409 12.9801 12.2417 12.6109 12.6109C12.2417 12.9801 11.7409 13.1875 11.2188 13.1875H7.28125C6.75911 13.1875 6.25835 12.9801 5.88913 12.6109C5.51992 12.2417 5.3125 11.7409 5.3125 11.2188V7.28125ZM7.28125 6.625C7.1072 6.625 6.94028 6.69414 6.81721 6.81721C6.69414 6.94028 6.625 7.1072 6.625 7.28125V11.2188C6.625 11.3928 6.69414 11.5597 6.81721 11.6828C6.94028 11.8059 7.1072 11.875 7.28125 11.875H11.2188C11.3928 11.875 11.5597 11.8059 11.6828 11.6828C11.8059 11.5597 11.875 11.3928 11.875 11.2188V7.28125C11.875 7.1072 11.8059 6.94028 11.6828 6.81721C11.5597 6.69414 11.3928 6.625 11.2188 6.625H7.28125ZM15.8125 7.28125C15.8125 6.75911 16.0199 6.25835 16.3891 5.88913C16.7583 5.51992 17.2591 5.3125 17.7812 5.3125H21.7188C22.2409 5.3125 22.7417 5.51992 23.1109 5.88913C23.4801 6.25835 23.6875 6.75911 23.6875 7.28125V11.2188C23.6875 11.7409 23.4801 12.2417 23.1109 12.6109C22.7417 12.9801 22.2409 13.1875 21.7188 13.1875H17.7812C17.2591 13.1875 16.7583 12.9801 16.3891 12.6109C16.0199 12.2417 15.8125 11.7409 15.8125 11.2188V7.28125ZM17.7812 6.625C17.6072 6.625 17.4403 6.69414 17.3172 6.81721C17.1941 6.94028 17.125 7.1072 17.125 7.28125V11.2188C17.125 11.3928 17.1941 11.5597 17.3172 11.6828C17.4403 11.8059 17.6072 11.875 17.7812 11.875H21.7188C21.8928 11.875 22.0597 11.8059 22.1828 11.6828C22.3059 11.5597 22.375 11.3928 22.375 11.2188V7.28125C22.375 7.1072 22.3059 6.94028 22.1828 6.81721C22.0597 6.69414 21.8928 6.625 21.7188 6.625H17.7812ZM5.3125 17.7812C5.3125 17.2591 5.51992 16.7583 5.88913 16.3891C6.25835 16.0199 6.75911 15.8125 7.28125 15.8125H11.2188C11.7409 15.8125 12.2417 16.0199 12.6109 16.3891C12.9801 16.7583 13.1875 17.2591 13.1875 17.7812V21.7188C13.1875 22.2409 12.9801 22.7417 12.6109 23.1109C12.2417 23.4801 11.7409 23.6875 11.2188 23.6875H7.28125C6.75911 23.6875 6.25835 23.4801 5.88913 23.1109C5.51992 22.7417 5.3125 22.2409 5.3125 21.7188V17.7812ZM7.28125 17.125C7.1072 17.125 6.94028 17.1941 6.81721 17.3172C6.69414 17.4403 6.625 17.6072 6.625 17.7812V21.7188C6.625 21.8928 6.69414 22.0597 6.81721 22.1828C6.94028 22.3059 7.1072 22.375 7.28125 22.375H11.2188C11.3928 22.375 11.5597 22.3059 11.6828 22.1828C11.8059 22.0597 11.875 21.8928 11.875 21.7188V17.7812C11.875 17.6072 11.8059 17.4403 11.6828 17.3172C11.5597 17.1941 11.3928 17.125 11.2188 17.125H7.28125ZM15.8125 17.7812C15.8125 17.2591 16.0199 16.7583 16.3891 16.3891C16.7583 16.0199 17.2591 15.8125 17.7812 15.8125H21.7188C22.2409 15.8125 22.7417 16.0199 23.1109 16.3891C23.4801 16.7583 23.6875 17.2591 23.6875 17.7812V21.7188C23.6875 22.2409 23.4801 22.7417 23.1109 23.1109C22.7417 23.4801 22.2409 23.6875 21.7188 23.6875H17.7812C17.2591 23.6875 16.7583 23.4801 16.3891 23.1109C16.0199 22.7417 15.8125 22.2409 15.8125 21.7188V17.7812ZM17.7812 17.125C17.6072 17.125 17.4403 17.1941 17.3172 17.3172C17.1941 17.4403 17.125 17.6072 17.125 17.7812V21.7188C17.125 21.8928 17.1941 22.0597 17.3172 22.1828C17.4403 22.3059 17.6072 22.375 17.7812 22.375H21.7188C21.8928 22.375 22.0597 22.3059 22.1828 22.1828C22.3059 22.0597 22.375 21.8928 22.375 21.7188V17.7812C22.375 17.6072 22.3059 17.4403 22.1828 17.3172C22.0597 17.1941 21.8928 17.125 21.7188 17.125H17.7812Z" fill="#232323"/>
</svg>
