<svg width="24" height="24" viewBox="0 0 24 24" fill="currentColor" xmlns="http://www.w3.org/2000/svg">
<path d="M23.6663 19.7058C23.6663 19.9379 23.5742 20.1604 23.4101 20.3245C23.246 20.4886 23.0234 20.5808 22.7913 20.5808H16.8413C16.6465 21.3075 16.2173 21.9496 15.6203 22.4076C15.0234 22.8655 14.292 23.1137 13.5397 23.1137C12.7873 23.1137 12.056 22.8655 11.459 22.4076C10.8621 21.9496 10.4329 21.3075 10.238 20.5808H1.20801C0.975943 20.5808 0.753384 20.4886 0.589289 20.3245C0.425195 20.1604 0.333008 19.9379 0.333008 19.7058C0.333008 19.4738 0.425195 19.2512 0.589289 19.0871C0.753384 18.923 0.975943 18.8308 1.20801 18.8308H10.238C10.4329 18.1041 10.8621 17.462 11.459 17.0041C12.056 16.5461 12.7873 16.2979 13.5397 16.2979C14.292 16.2979 15.0234 16.5461 15.6203 17.0041C16.2173 17.462 16.6465 18.1041 16.8413 18.8308H22.7913C23.0234 18.8308 23.246 18.923 23.4101 19.0871C23.5742 19.2512 23.6663 19.4738 23.6663 19.7058ZM23.6663 4.29416C23.6663 4.52622 23.5742 4.74878 23.4101 4.91288C23.246 5.07697 23.0234 5.16916 22.7913 5.16916H19.933C19.7381 5.89584 19.3089 6.53794 18.712 6.99589C18.1151 7.45384 17.3837 7.70205 16.6313 7.70205C15.879 7.70205 15.1476 7.45384 14.5507 6.99589C13.9537 6.53794 13.5246 5.89584 13.3297 5.16916H1.20801C1.0931 5.16916 0.97932 5.14652 0.87316 5.10255C0.767 5.05858 0.670541 4.99413 0.589289 4.91288C0.508038 4.83162 0.443586 4.73516 0.399613 4.629C0.35564 4.52284 0.333008 4.40906 0.333008 4.29416C0.333008 4.17925 0.35564 4.06547 0.399613 3.95931C0.443586 3.85315 0.508038 3.75669 0.589289 3.67544C0.670541 3.59419 0.767 3.52973 0.87316 3.48576C0.97932 3.44179 1.0931 3.41916 1.20801 3.41916H13.3297C13.5246 2.69247 13.9537 2.05037 14.5507 1.59243C15.1476 1.13448 15.879 0.886261 16.6313 0.886261C17.3837 0.886261 18.1151 1.13448 18.712 1.59243C19.3089 2.05037 19.7381 2.69247 19.933 3.41916H22.7913C22.9067 3.41759 23.0212 3.43915 23.128 3.48256C23.2349 3.52598 23.332 3.59037 23.4136 3.67194C23.4951 3.75351 23.5595 3.85059 23.6029 3.95746C23.6464 4.06433 23.6679 4.17882 23.6663 4.29416ZM23.6663 11.9942C23.6679 12.1095 23.6464 12.224 23.6029 12.3309C23.5595 12.4377 23.4951 12.5348 23.4136 12.6164C23.332 12.6979 23.2349 12.7623 23.128 12.8057C23.0212 12.8492 22.9067 12.8707 22.7913 12.8692H9.14134C8.94646 13.5958 8.51728 14.2379 7.92033 14.6959C7.32339 15.1538 6.59204 15.4021 5.83967 15.4021C5.08731 15.4021 4.35596 15.1538 3.75902 14.6959C3.16207 14.2379 2.73289 13.5958 2.53801 12.8692H1.20801C0.975943 12.8692 0.753384 12.777 0.589289 12.6129C0.425195 12.4488 0.333008 12.2262 0.333008 11.9942C0.333008 11.7621 0.425195 11.5395 0.589289 11.3754C0.753384 11.2113 0.975943 11.1192 1.20801 11.1192H2.53801C2.73289 10.3925 3.16207 9.75037 3.75902 9.29242C4.35596 8.83448 5.08731 8.58626 5.83967 8.58626C6.59204 8.58626 7.32339 8.83448 7.92033 9.29242C8.51728 9.75037 8.94646 10.3925 9.14134 11.1192H22.7913C23.0234 11.1192 23.246 11.2113 23.4101 11.3754C23.5742 11.5395 23.6663 11.7621 23.6663 11.9942Z"/>
</svg>
