<svg width="17" height="17" viewBox="0 0 17 17" fill="none" xmlns="http://www.w3.org/2000/svg">
<path d="M8.5 1.41699C10.1908 1.41699 11.8123 2.08864 13.0078 3.28419C14.2033 4.47973 14.875 6.10124 14.875 7.79199C14.875 9.96941 13.6878 11.7516 12.4369 13.0301C11.8119 13.662 11.13 14.2349 10.3997 14.7415L10.098 14.9469L9.95633 15.0411L9.68929 15.2111L9.45129 15.3563L9.15663 15.5277C8.95662 15.6419 8.7303 15.7019 8.5 15.7019C8.2697 15.7019 8.04338 15.6419 7.84338 15.5277L7.54871 15.3563L7.18038 15.1296L7.04437 15.0411L6.75396 14.8477C5.96617 14.3147 5.23239 13.7059 4.56308 13.0301C3.31217 11.7509 2.125 9.96941 2.125 7.79199C2.125 6.10124 2.79665 4.47973 3.99219 3.28419C5.18774 2.08864 6.80925 1.41699 8.5 1.41699ZM8.5 5.66699C8.22094 5.66699 7.94461 5.72196 7.6868 5.82875C7.42898 5.93554 7.19472 6.09207 6.9974 6.28939C6.80007 6.48671 6.64355 6.72097 6.53676 6.97879C6.42996 7.23661 6.375 7.51293 6.375 7.79199C6.375 8.07105 6.42996 8.34738 6.53676 8.60519C6.64355 8.86301 6.80007 9.09727 6.9974 9.29459C7.19472 9.49192 7.42898 9.64845 7.6868 9.75524C7.94461 9.86203 8.22094 9.91699 8.5 9.91699C9.06359 9.91699 9.60409 9.69311 10.0026 9.29459C10.4011 8.89608 10.625 8.35558 10.625 7.79199C10.625 7.22841 10.4011 6.6879 10.0026 6.28939C9.60409 5.89087 9.06359 5.66699 8.5 5.66699Z" fill="#CB0A0A"/>
</svg>
