<svg width="17" height="17" viewBox="0 0 17 17" fill="none" xmlns="http://www.w3.org/2000/svg">
<path d="M9.04662 4.25879C9.04662 4.11789 8.99065 3.98277 8.89102 3.88314C8.79139 3.78351 8.65627 3.72754 8.51537 3.72754C8.37448 3.72754 8.23935 3.78351 8.13972 3.88314C8.04009 3.98277 7.98412 4.11789 7.98412 4.25879V7.59345C7.7834 7.71005 7.62669 7.88953 7.53821 8.10414C7.44974 8.31875 7.43444 8.55653 7.49467 8.78071C7.5549 9.00489 7.68732 9.20298 7.87143 9.34435C8.05555 9.48572 8.28112 9.56249 8.51325 9.56279L9.64162 11.5173C9.71257 11.6383 9.82851 11.7263 9.96413 11.7622C10.0998 11.798 10.2441 11.7788 10.3656 11.7087C10.487 11.6385 10.5759 11.5232 10.6126 11.3878C10.6494 11.2524 10.6311 11.108 10.5617 10.986L9.43337 9.03154C9.57217 8.78915 9.6094 8.50168 9.53694 8.23193C9.46447 7.96217 9.2882 7.73206 9.04662 7.59185V4.25879Z" fill="#CB0A0A"/>
<path d="M15.9375 8.5C15.9375 4.39237 12.6076 1.0625 8.5 1.0625C4.39237 1.0625 1.0625 4.39237 1.0625 8.5C1.0625 12.6076 4.39237 15.9375 8.5 15.9375C12.6076 15.9375 15.9375 12.6076 15.9375 8.5ZM14.3438 8.5C14.3438 11.7273 11.7273 14.3438 8.5 14.3438C5.27266 14.3438 2.65625 11.7273 2.65625 8.5C2.65625 5.27266 5.27266 2.65625 8.5 2.65625C11.7273 2.65625 14.3438 5.27266 14.3438 8.5Z" fill="#CB0A0A"/>
</svg>
