<svg width="36" height="36" viewBox="0 0 36 36" fill="none" xmlns="http://www.w3.org/2000/svg">
<path fill-rule="evenodd" clip-rule="evenodd" d="M11.2106 11.011C11.3513 10.8704 11.5458 10.7951 11.7513 10.8017C11.9569 10.8084 12.1566 10.8964 12.3067 11.0464L17.9635 16.7032L23.2668 11.3999C23.4075 11.2593 23.602 11.184 23.8075 11.1906C24.013 11.1973 24.2128 11.2853 24.3628 11.4353C24.5129 11.5853 24.6009 11.7851 24.6075 11.9906C24.6141 12.1962 24.5388 12.3907 24.3982 12.5313L19.0949 17.8346L24.7517 23.4915C24.9018 23.6415 24.9898 23.8413 24.9964 24.0468C25.003 24.2523 24.9277 24.4468 24.7871 24.5875C24.6464 24.7281 24.4519 24.8034 24.2464 24.7968C24.0409 24.7902 23.8411 24.7022 23.6911 24.5521L18.0342 18.8953L12.7309 24.1986C12.5903 24.3392 12.3958 24.4145 12.1902 24.4079C11.9847 24.4013 11.7849 24.3133 11.6349 24.1632C11.4849 24.0132 11.3969 23.8134 11.3902 23.6079C11.3836 23.4024 11.4589 23.2079 11.5995 23.0672L16.9029 17.7639L11.246 12.1071C11.096 11.957 11.008 11.7573 11.0013 11.5517C10.9947 11.3462 11.07 11.1517 11.2106 11.011Z" fill="white"/>
</svg>
