<svg width="21" height="20" viewBox="0 0 21 20" fill="none" xmlns="http://www.w3.org/2000/svg">
<path d="M13.5885 6.3506L13.7046 6.58686L13.9651 6.62487L20.2175 7.5371C20.2177 7.53713 20.218 7.53716 20.2182 7.53719C20.379 7.56152 20.4859 7.70957 20.4622 7.86425L20.4621 7.86424L20.4613 7.86976C20.4525 7.93225 20.4231 7.99042 20.377 8.03595C20.3769 8.03607 20.3767 8.03618 20.3766 8.0363L15.8527 12.4642L15.6654 12.6475L15.7096 12.9058L16.7786 19.1595L16.7786 19.1599C16.8059 19.3187 16.6995 19.468 16.5433 19.495L16.5425 19.4952C16.4803 19.506 16.4164 19.4955 16.3641 19.4676L16.3619 19.4664L10.768 16.5139L10.5346 16.3907L10.3012 16.5139L4.7073 19.4664L4.70652 19.4668C4.65924 19.4919 4.60606 19.5031 4.55297 19.4993C4.49987 19.4955 4.44873 19.4768 4.40534 19.4452C4.36194 19.4135 4.32799 19.3701 4.30759 19.3197C4.28718 19.2692 4.28124 19.2139 4.29051 19.1602L4.29062 19.1595L5.35965 12.9058L5.4038 12.6475L5.21654 12.4642L0.691653 8.0354L0.69162 8.03536C0.636481 7.98141 0.604573 7.90726 0.603541 7.82911C0.602514 7.75126 0.632218 7.67654 0.685548 7.62117C0.730853 7.57503 0.788094 7.54622 0.84888 7.53751L0.850085 7.53733L7.10413 6.62487L7.36461 6.58686L7.4807 6.3506L10.2752 0.66308C10.2754 0.662786 10.2755 0.662492 10.2757 0.662199C10.3488 0.516468 10.523 0.460569 10.6623 0.529612L10.6629 0.529899C10.7189 0.55755 10.7647 0.603288 10.7926 0.660231L10.7928 0.660664L13.5885 6.3506Z" stroke="#FFB834"/>
</svg>
