<svg width="28" height="28" viewBox="0 0 28 28" fill="none" xmlns="http://www.w3.org/2000/svg">
<rect width="28" height="28" rx="8" fill="#CB0A0A"/>
<g clip-path="url(#clip0_139_268)">
<path fill-rule="evenodd" clip-rule="evenodd" d="M19.833 8.32247C20.0183 8.24447 20.2212 8.21756 20.4204 8.24456C20.6197 8.27156 20.8081 8.35148 20.966 8.47599C21.1239 8.6005 21.2455 8.76506 21.3183 8.95254C21.391 9.14001 21.4121 9.34355 21.3795 9.54197L19.6785 19.8597C19.5135 20.855 18.4215 21.4257 17.5087 20.93C16.7452 20.5152 15.6112 19.8762 14.5912 19.2095C14.0812 18.8757 12.519 17.807 12.711 17.0465C12.876 16.3962 15.501 13.9527 17.001 12.5C17.5897 11.9292 17.3212 11.6 16.626 12.125C14.8987 13.4285 12.1275 15.4107 11.211 15.9687C10.4025 16.4607 9.98098 16.5447 9.47698 16.4607C8.55748 16.3077 7.70473 16.0707 7.00873 15.782C6.06823 15.392 6.11398 14.099 7.00798 13.7225L19.833 8.32247Z" fill="white"/>
</g>
<defs>
<clipPath id="clip0_139_268">
<rect width="18" height="18" fill="white" transform="translate(5 5)"/>
</clipPath>
</defs>
</svg>
