<svg width="28" height="28" viewBox="0 0 28 28" fill="none" xmlns="http://www.w3.org/2000/svg">
<rect width="28" height="28" rx="8" fill="#CB0A0A"/>
<path d="M17.4501 9.365C16.9374 8.77972 16.6549 8.02807 16.6551 7.25H14.3376V16.55C14.3197 17.0533 14.1073 17.53 13.7449 17.8797C13.3826 18.2294 12.8987 18.4249 12.3951 18.425C11.3301 18.425 10.4451 17.555 10.4451 16.475C10.4451 15.185 11.6901 14.2175 12.9726 14.615V12.245C10.3851 11.9 8.12012 13.91 8.12012 16.475C8.12012 18.9725 10.1901 20.75 12.3876 20.75C14.7426 20.75 16.6551 18.8375 16.6551 16.475V11.7575C17.5949 12.4324 18.7231 12.7945 19.8801 12.7925V10.475C19.8801 10.475 18.4701 10.5425 17.4501 9.365Z" fill="white"/>
</svg>
