<svg width="28" height="28" viewBox="0 0 28 28" fill="none" xmlns="http://www.w3.org/2000/svg">
<rect width="28" height="28" rx="8" fill="#CB0A0A"/>
<path d="M21.1273 18.7858H19.4165C18.7692 18.7858 18.5743 18.2615 17.414 17.1005C16.4 16.1233 15.9718 16.0018 15.7153 16.0018C15.3605 16.0018 15.2638 16.0993 15.2638 16.5875V18.1265C15.2638 18.5428 15.1287 18.7865 14.0413 18.7865C12.9862 18.7156 11.9631 18.3951 11.0562 17.8514C10.1493 17.3076 9.38459 16.5562 8.825 15.659C7.49629 14.0053 6.57178 12.0643 6.125 9.99051C6.125 9.73401 6.2225 9.50151 6.7115 9.50151H8.4215C8.861 9.50151 9.01925 9.69726 9.19175 10.1495C10.022 12.593 11.4388 14.7185 12.014 14.7185C12.2345 14.7185 12.3305 14.621 12.3305 14.0713V11.5543C12.2578 10.406 11.648 10.3093 11.648 9.89376C11.6557 9.78414 11.7059 9.68184 11.7878 9.6086C11.8697 9.53536 11.977 9.49694 12.0868 9.50151H14.7747C15.1423 9.50151 15.2638 9.68451 15.2638 10.124V13.5215C15.2638 13.8883 15.4213 14.0098 15.5323 14.0098C15.7528 14.0098 15.9222 13.8883 16.3265 13.4848C17.193 12.428 17.9009 11.2506 18.428 9.98976C18.4819 9.83837 18.5839 9.70879 18.7184 9.62077C18.8529 9.53275 19.0124 9.49113 19.1727 9.50226H20.8835C21.3965 9.50226 21.5052 9.75876 21.3965 10.1248C20.7743 11.5186 20.0044 12.8416 19.1 14.0713C18.9155 14.3525 18.842 14.4988 19.1 14.8288C19.2695 15.0853 19.8695 15.5863 20.2723 16.0625C20.8588 16.6475 21.3455 17.324 21.7137 18.065C21.8608 18.542 21.6155 18.7858 21.1273 18.7858Z" fill="white"/>
</svg>
