<svg xmlns="http://www.w3.org/2000/svg" viewBox="0 0 399.85 73.95"><defs><style>.cls-1{fill:#fff;}</style></defs><g id="_1" data-name="1"><g id="Лого2"><path class="cls-1" d="M29.14,57.37H0V16.58H29.14A11.28,11.28,0,0,1,37.29,20a11.08,11.08,0,0,1,3.5,8.21,11.17,11.17,0,0,1-4,8.74,11.56,11.56,0,0,1,.58,16.88A11.62,11.62,0,0,1,29.14,57.37Zm-23.31-35V34.06H29.14A5.86,5.86,0,0,0,35,28.23a5.86,5.86,0,0,0-5.82-5.82ZM29.14,39.89H5.83V51.54H29.14a5.83,5.83,0,0,0,0-11.65Z"/><path class="cls-1" d="M51.86,22.41V34.06H81v5.83H51.86V51.54h35v5.83H46V16.58H86.83v5.83Z"/><path class="cls-1" d="M97.32,16.58v35H119v5.83H91.49V16.58Z"/><path class="cls-1" d="M162.12,28.23V45.72a11.75,11.75,0,0,1-11.66,11.65H133a11.63,11.63,0,0,1-11.65-11.65V28.23A11.73,11.73,0,0,1,133,16.58h17.48a11.2,11.2,0,0,1,8.16,3.47A11.15,11.15,0,0,1,162.12,28.23Zm-5.83,17.49V28.23a5.87,5.87,0,0,0-5.83-5.82H133a5.87,5.87,0,0,0-5.83,5.82V45.72A5.87,5.87,0,0,0,133,51.54h17.48a5.87,5.87,0,0,0,5.83-5.82Z"/><path class="cls-1" d="M208.15,16.58V57.37h-5.82L173.19,26V57.37h-5.83V16.58h5.83l29.14,30.88V16.58Z"/><path class="cls-1" d="M214,57.37V16.58h5.83V57.37Z"/><rect class="cls-1" x="140.42" y="18.93" width="2.52" height="35.24"/><rect class="cls-1" x="136.3" y="32.44" width="1.72" height="8.24" rx="0.65"/><rect class="cls-1" x="145.34" y="32.44" width="1.72" height="8.24" rx="0.65"/><path class="cls-1" d="M250.67,0V74h-5.83V0Z"/><path class="cls-1" d="M277.32,13.21h1.07l4.1-5.55h3l-4.84,6.52,5.28,7H283l-4.33-5.59h-1.31v5.59h-2.6V7.66h2.6Z"/><path class="cls-1" d="M290.44,21.28l-.45,0-.51-.08A3.24,3.24,0,0,1,289,21a2,2,0,0,1-.44-.22l.34-2.17a5,5,0,0,0,.58.26,2.23,2.23,0,0,0,.77.14,1.62,1.62,0,0,0,1-.31,2.53,2.53,0,0,0,.71-1.13l-5-9.92h2.83l3.31,7.28,3.07-7.28h2.76l-4.75,10.26a13.55,13.55,0,0,1-.82,1.55,5.39,5.39,0,0,1-.82,1,2.76,2.76,0,0,1-.93.59A3.21,3.21,0,0,1,290.44,21.28Z"/><path class="cls-1" d="M302.81,7.66l3.36,5,3.34-5h2.83l-4.8,6.84,4.65,6.65h-2.83l-3.19-4.83L303,21.15h-2.85l4.65-6.65L300,7.66Z"/><path class="cls-1" d="M326.22,7.66V21.15h-2.6V15.39h-6.11v5.76h-2.63V7.66h2.63v5.45h6.11V7.66Z"/><path class="cls-1" d="M332.89,17.12l6.87-9.46h2V21.15h-2.61V11.9l-6.78,9.25h-2.08V7.66h2.6Z"/><path class="cls-1" d="M274.72,28.55h11.11V42h-2.6V30.85h-5.91V42h-2.6Z"/><path class="cls-1" d="M295.63,42.13a6.1,6.1,0,0,1-2.69-.58A6.59,6.59,0,0,1,290.87,40a7.21,7.21,0,0,1-1.34-2.19,7.09,7.09,0,0,1-.47-2.53,6.89,6.89,0,0,1,.5-2.58A7.18,7.18,0,0,1,291,30.53a6.48,6.48,0,0,1,2.1-1.51,6.13,6.13,0,0,1,2.64-.56,5.87,5.87,0,0,1,2.66.6,6.53,6.53,0,0,1,2.06,1.56,7.09,7.09,0,0,1,1.33,2.21,6.83,6.83,0,0,1,0,5.08,7.12,7.12,0,0,1-1.36,2.16,6.56,6.56,0,0,1-2.09,1.5A6.28,6.28,0,0,1,295.63,42.13Zm-3.91-6.84A5.58,5.58,0,0,0,292,37a4.68,4.68,0,0,0,.77,1.45,3.78,3.78,0,0,0,1.24,1,3.45,3.45,0,0,0,1.66.38,3.53,3.53,0,0,0,1.68-.39,3.61,3.61,0,0,0,1.23-1,4.47,4.47,0,0,0,.76-1.45,5.47,5.47,0,0,0,.26-1.65,5.12,5.12,0,0,0-.28-1.69,4.56,4.56,0,0,0-.78-1.44,3.58,3.58,0,0,0-2.87-1.37,3.54,3.54,0,0,0-1.69.39,3.66,3.66,0,0,0-1.24,1,4.49,4.49,0,0,0-.75,1.44A5.44,5.44,0,0,0,291.72,35.29Z"/><path class="cls-1" d="M321.76,38.56a3,3,0,0,1-1.28,2.58,4.38,4.38,0,0,1-1.39.67,6,6,0,0,1-1.68.23H310.9V28.55h7.21a2.61,2.61,0,0,1,1.28.31,3.05,3.05,0,0,1,1,.78,3.45,3.45,0,0,1,.62,1.11,3.57,3.57,0,0,1,.22,1.24,3.74,3.74,0,0,1-.49,1.85,3,3,0,0,1-1.45,1.28,3.51,3.51,0,0,1,1.84,1.23A3.58,3.58,0,0,1,321.76,38.56Zm-8.24-7.77v3.4H317a1.57,1.57,0,0,0,1.13-.45,1.69,1.69,0,0,0,.47-1.26,1.74,1.74,0,0,0-.43-1.23,1.42,1.42,0,0,0-1.05-.46Zm5.6,7.28a2.1,2.1,0,0,0-.12-.7,2.21,2.21,0,0,0-.34-.58,1.69,1.69,0,0,0-.49-.39,1.46,1.46,0,0,0-.63-.14h-4v3.55h3.89a1.63,1.63,0,0,0,.67-.13,1.72,1.72,0,0,0,.55-.37,1.8,1.8,0,0,0,.36-.56A1.91,1.91,0,0,0,319.12,38.07Z"/><path class="cls-1" d="M329,28.55h2.31L336.42,42h-2.7l-1.25-3.37h-4.71L326.53,42h-2.7Zm3,8.28-1.86-5.3-1.93,5.3Z"/><path class="cls-1" d="M354.88,28.55V42H339.1V28.55h2.6V39.74h4V28.55h2.6V39.74h4V28.55Z"/><path class="cls-1" d="M368.3,39.74V42h-9.36V28.55h9.19v2.3h-6.57V34.1h5.68v2.12h-5.68v3.52Z"/><path class="cls-1" d="M382.55,42V33.11l-3.48,6.65h-1.42l-3.48-6.65V42h-2.62V28.55h2.81l4,7.67,4-7.67h2.79V42Z"/><path class="cls-1" d="M391.41,42.17l-.45,0a4.54,4.54,0,0,1-.51-.09,2.46,2.46,0,0,1-.53-.15,1.66,1.66,0,0,1-.44-.23l.34-2.16a5,5,0,0,0,.58.26,2.23,2.23,0,0,0,.77.14,1.62,1.62,0,0,0,1-.31,2.53,2.53,0,0,0,.71-1.13l-5-9.92h2.83L394,35.83l3.07-7.28h2.76L395.1,38.81a14.46,14.46,0,0,1-.82,1.55,5.39,5.39,0,0,1-.82,1,2.76,2.76,0,0,1-.93.59A3.21,3.21,0,0,1,391.41,42.17Z"/><path class="cls-1" d="M274.72,62.92V49.44h5.72a3.77,3.77,0,0,1,1.71.39,4.33,4.33,0,0,1,1.36,1,4.86,4.86,0,0,1,.9,1.44,4.45,4.45,0,0,1,.32,1.62,4.79,4.79,0,0,1-1.16,3.1,4.3,4.3,0,0,1-1.33,1,3.9,3.9,0,0,1-1.71.38h-3.19v4.51Zm2.62-6.81h3a1.53,1.53,0,0,0,1.21-.59,2.46,2.46,0,0,0,.48-1.6,2.65,2.65,0,0,0-.15-.92,2.32,2.32,0,0,0-.4-.69,1.72,1.72,0,0,0-.58-.43,1.79,1.79,0,0,0-.67-.14h-2.93Z"/><path class="cls-1" d="M297.11,60.63v2.29h-9.36V49.44h9.19v2.3h-6.57V55h5.68v2.12h-5.68v3.52Z"/><path class="cls-1" d="M310.38,62.92h-10V49.44H303V60.63h5.26V49.44h2.6V60.63h2v5.66h-2.47Z"/><path class="cls-1" d="M325.16,60.63v2.29H315.8V49.44H325v2.3h-6.57V55h5.67v2.12h-5.67v3.52Z"/><path class="cls-1" d="M328.4,49.44h11.11V62.92h-2.6V51.74H331V62.92H328.4Z"/><path class="cls-1" d="M353.62,51.74h-4.31V62.92h-2.6V51.74H342.4v-2.3h11.22Z"/><path class="cls-1" d="M358.67,63.06l-.45,0-.51-.09a2.63,2.63,0,0,1-.53-.15,1.66,1.66,0,0,1-.44-.23l.34-2.16a5,5,0,0,0,.58.26,2.23,2.23,0,0,0,.77.14,1.52,1.52,0,0,0,1-.32,2.42,2.42,0,0,0,.71-1.13l-5-9.91H358l3.31,7.28,3.07-7.28h2.76L362.36,59.7a13.34,13.34,0,0,1-.82,1.54,5.18,5.18,0,0,1-.82,1,2.82,2.82,0,0,1-.92.59A3.31,3.31,0,0,1,358.67,63.06Z"/></g></g></svg>