<svg xmlns="http://www.w3.org/2000/svg" viewBox="0 0 405.97 73.04"><defs><style>.cls-1{fill:#cb0a0a;}</style></defs><g id="_1" data-name="1"><g id="Лого2"><path class="cls-1" d="M28.78,56.66H0V16.37H28.78a11.13,11.13,0,0,1,8,3.4,11,11,0,0,1,3.46,8.12,11,11,0,0,1-3.92,8.63A11.39,11.39,0,0,1,37,53.18,11.41,11.41,0,0,1,28.78,56.66Zm-23-34.53V33.64h23a5.74,5.74,0,0,0,4.06-9.81,5.57,5.57,0,0,0-4.06-1.7Zm23,17.27h-23V50.91h23a5.76,5.76,0,0,0,0-11.51Z"/><path class="cls-1" d="M51.22,22.13V33.64H80V39.4H51.22V50.91H85.76v5.75H45.47V16.37H85.76v5.76Z"/><path class="cls-1" d="M96.12,16.37V50.91h21.41v5.75H90.36V16.37Z"/><path class="cls-1" d="M160.12,27.89V45.15a11.59,11.59,0,0,1-11.51,11.51H131.34a11.49,11.49,0,0,1-11.51-11.51V27.89a11.05,11.05,0,0,1,3.4-8.12,11.07,11.07,0,0,1,8.11-3.4h17.27a11.08,11.08,0,0,1,8,3.43A11,11,0,0,1,160.12,27.89Zm-5.76,17.26V27.89a5.79,5.79,0,0,0-5.75-5.76H131.34a5.79,5.79,0,0,0-5.75,5.76V45.15a5.79,5.79,0,0,0,5.75,5.76h17.27a5.79,5.79,0,0,0,5.75-5.76Z"/><path class="cls-1" d="M205.59,16.37V56.66h-5.76l-28.78-31v31H165.3V16.37h5.75l28.78,30.51V16.37Z"/><path class="cls-1" d="M211.34,56.66V16.37h5.76V56.66Z"/><rect class="cls-1" x="138.69" y="18.7" width="2.49" height="34.81"/><rect class="cls-1" x="134.62" y="32.04" width="1.7" height="8.14" rx="0.44"/><rect class="cls-1" x="143.55" y="32.04" width="1.7" height="8.14" rx="0.44"/><path class="cls-1" d="M247.58,0V73h-5.76V0Z"/><path class="cls-1" d="M273.6,22.65h.79l4.42-6h4L277.31,24l5.95,7.84h-3.91l-4.64-6H273.6v6h-3.51V16.63h3.51Z"/><path class="cls-1" d="M290.67,32a3.94,3.94,0,0,1-.55,0c-.22,0-.43-.07-.65-.12a5,5,0,0,1-.66-.2,3.12,3.12,0,0,1-.57-.32l.62-2.89c.11.07.3.18.57.32a1.93,1.93,0,0,0,.9.22,1.47,1.47,0,0,0,.94-.3,2.06,2.06,0,0,0,.62-1l-5.6-11h3.85l3.33,7.52,3.08-7.52h3.7L294.9,28.17a17.18,17.18,0,0,1-.9,1.74,5.48,5.48,0,0,1-.93,1.16,3.48,3.48,0,0,1-1.07.67A3.91,3.91,0,0,1,290.67,32Z"/><path class="cls-1" d="M307.13,16.63l3.31,5.23,3.32-5.23h3.78l-5.26,7.69,5.09,7.48h-3.79l-3.14-5-3.14,5h-3.8l5.08-7.48-5.25-7.69Z"/><path class="cls-1" d="M335.38,16.63V31.8h-3.5V25.58h-6.05V31.8h-3.51V16.63h3.51V22.5h6.05V16.63Z"/><path class="cls-1" d="M345.38,26.35l7.14-9.72h2.61V31.8h-3.51V22.31l-7.05,9.49h-2.71V16.63h3.52Z"/><path class="cls-1" d="M270.09,41.25h11.35v3.07h-7.82v2.91h3.67a5.71,5.71,0,0,1,3.84,1.19,4.16,4.16,0,0,1,1.38,3.34,4.42,4.42,0,0,1-1.33,3.44,5.33,5.33,0,0,1-3.74,1.22h-7.35Zm7,12.2a1.94,1.94,0,0,0,1.4-.46,1.68,1.68,0,0,0,.48-1.27,1.7,1.7,0,0,0-.47-1.23A1.9,1.9,0,0,0,277,50h-3.42v3.44Z"/><path class="cls-1" d="M298.58,53.34v3.08H287.92V41.25h10.47v3.07h-7v3h6v2.85h-6v3.22Z"/><path class="cls-1" d="M309.54,46.5a41.32,41.32,0,0,1-.69,4.82,9.88,9.88,0,0,1-1.14,3.1,4.16,4.16,0,0,1-1.86,1.66,7.11,7.11,0,0,1-2.83.49l-.1-3.08a3.38,3.38,0,0,0,1.29-.37A2.2,2.2,0,0,0,305.1,52a10.46,10.46,0,0,0,.61-2.34c.16-1,.32-2.37.48-4.06l.38-4.36h9.86V56.42h-3.51V44.32h-3.16Z"/><path class="cls-1" d="M326.94,41.25h3.16l5.54,15.17h-3.59L330.87,53h-4.72L325,56.42h-3.59Zm3.36,9.36-1.78-5.37-1.81,5.37Z"/><path class="cls-1" d="M340.62,56.42V41.25h6.47a4.42,4.42,0,0,1,2,.45,4.92,4.92,0,0,1,1.56,1.17,5.53,5.53,0,0,1,1,1.65,4.86,4.86,0,0,1,.37,1.86,5.4,5.4,0,0,1-.35,1.92,5.72,5.72,0,0,1-1,1.65,4.61,4.61,0,0,1-3.52,1.58h-3.08v4.89Zm3.5-8H347a1.38,1.38,0,0,0,1.07-.53,2.44,2.44,0,0,0,.44-1.56,2.76,2.76,0,0,0-.13-.92,1.91,1.91,0,0,0-.38-.64,1.49,1.49,0,0,0-.53-.38,1.61,1.61,0,0,0-.6-.12h-2.74Z"/><path class="cls-1" d="M360.26,56.57a4.07,4.07,0,0,1-.56,0l-.65-.12a4.88,4.88,0,0,1-.65-.2,3.22,3.22,0,0,1-.58-.32l.62-2.89.58.32a1.93,1.93,0,0,0,.9.22,1.49,1.49,0,0,0,.94-.3,2.14,2.14,0,0,0,.62-1l-5.6-11h3.84l3.34,7.52,3.08-7.52h3.69l-5.34,11.54a17.07,17.07,0,0,1-.91,1.74,4.92,4.92,0,0,1-.93,1.16,3.37,3.37,0,0,1-1.07.67A3.81,3.81,0,0,1,360.26,56.57Z"/><path class="cls-1" d="M373.64,48.71a7.71,7.71,0,0,1,.51-2.73,7.48,7.48,0,0,1,1.5-2.43A7.69,7.69,0,0,1,378,41.82a7.49,7.49,0,0,1,3.21-.66,7.2,7.2,0,0,1,3.7.92,5.9,5.9,0,0,1,2.34,2.39l-2.69,1.88a3.21,3.21,0,0,0-.65-1,3.55,3.55,0,0,0-.87-.64,3.44,3.44,0,0,0-1-.34,4.61,4.61,0,0,0-1-.1,3.62,3.62,0,0,0-1.75.41,3.84,3.84,0,0,0-1.24,1.05,4.31,4.31,0,0,0-.73,1.45,6.13,6.13,0,0,0-.23,1.64,5.65,5.65,0,0,0,.27,1.74,4.78,4.78,0,0,0,.81,1.47,3.71,3.71,0,0,0,2.91,1.39,4.09,4.09,0,0,0,1-.12,4.19,4.19,0,0,0,1-.36,3.67,3.67,0,0,0,.84-.64,3,3,0,0,0,.62-1L387.46,53a4.28,4.28,0,0,1-1,1.5,6.43,6.43,0,0,1-1.55,1.11,7.8,7.8,0,0,1-1.86.68,8.14,8.14,0,0,1-1.92.24,6.94,6.94,0,0,1-3-.67,7.65,7.65,0,0,1-2.37-1.79,8.14,8.14,0,0,1-1.54-2.52A7.93,7.93,0,0,1,373.64,48.71Z"/><path class="cls-1" d="M396.23,51l7.14-9.72H406V56.42h-3.5V46.93l-7.05,9.49H392.7V41.25h3.53Z"/></g></g></svg>