<svg xmlns="http://www.w3.org/2000/svg" viewBox="0 0 295.98 109.71"><defs><style>.cls-1{fill:#cb0a0a;}</style></defs><g id="_1" data-name="1"><g id="Лого1"><path class="cls-1" d="M39.23,109.71H0V54.78H39.23a15.17,15.17,0,0,1,11,4.63,15.5,15.5,0,0,1-.63,22.83A15.55,15.55,0,0,1,50.38,105,15.69,15.69,0,0,1,39.23,109.71ZM7.85,62.63V78.32H39.23a7.85,7.85,0,0,0,0-15.69ZM39.23,86.17H7.85v15.69H39.23a7.85,7.85,0,0,0,0-15.69Z"/><path class="cls-1" d="M69.84,62.63V78.32h39.23v7.85H69.84v15.69h47.08v7.85H62V54.78h54.93v7.85Z"/><path class="cls-1" d="M131,54.78v47.08h29.19v7.85h-37V54.78Z"/><path class="cls-1" d="M218.3,70.47V94a15.81,15.81,0,0,1-15.7,15.7H179.06A15.67,15.67,0,0,1,163.37,94V70.47a15.81,15.81,0,0,1,15.69-15.69H202.6a16,16,0,0,1,15.7,15.69ZM210.45,94V70.47a7.89,7.89,0,0,0-7.85-7.84H179.06a7.89,7.89,0,0,0-7.84,7.84V94a7.89,7.89,0,0,0,7.84,7.85H202.6A7.89,7.89,0,0,0,210.45,94Z"/><path class="cls-1" d="M280.29,54.78v54.93h-7.85L233.21,67.49v42.22h-7.85V54.78h7.85l39.23,41.59V54.78Z"/><path class="cls-1" d="M288.13,109.71V54.78H296v54.93Z"/><rect class="cls-1" x="189.08" y="57.95" width="3.39" height="47.45"/><rect class="cls-1" x="183.53" y="76.13" width="2.31" height="11.09" rx="0.67"/><rect class="cls-1" x="195.71" y="76.13" width="2.31" height="11.09" rx="0.67"/><path class="cls-1" d="M0,32.81H296v7.85H0Z"/><path class="cls-1" d="M4.83,7.94h1.5L12.13.11h4.19L9.47,9.31l7.46,9.85H12.8L6.68,11.27H4.83v7.89H1.15V.11H4.83Z"/><path class="cls-1" d="M26.06,19.35c-.2,0-.41,0-.65,0l-.72-.12A6.29,6.29,0,0,1,24,19a3.09,3.09,0,0,1-.63-.32l.48-3.06a6.28,6.28,0,0,0,.82.36,2.89,2.89,0,0,0,1.09.2,2.11,2.11,0,0,0,1.35-.44,3.52,3.52,0,0,0,1-1.59l-7-14h4l4.67,10.27L34.08.11H38L31.26,14.6a18.14,18.14,0,0,1-1.15,2.19,8,8,0,0,1-1.17,1.47,3.59,3.59,0,0,1-1.3.83A4.55,4.55,0,0,1,26.06,19.35Z"/><path class="cls-1" d="M46.21.11,51,7.19,55.68.11h4L52.89,9.77l6.58,9.39h-4L51,12.34l-4.54,6.82h-4L49,9.77,42.18.11Z"/><path class="cls-1" d="M82,.11V19.16H78.3V11H69.66v8.13H66V.11h3.7v7.7H78.3V.11Z"/><path class="cls-1" d="M94.08,13.47,103.8.11h2.81V19.16h-3.67V6.09L93.36,19.16h-3V.11h3.67Z"/><path class="cls-1" d="M125.77.11H139.7V3.35H129.45V7.73h5.26a8.16,8.16,0,0,1,2.54.37,5.47,5.47,0,0,1,1.95,1.1A5,5,0,0,1,140.47,11a6.29,6.29,0,0,1,.44,2.42,5.47,5.47,0,0,1-1.65,4.28,6.36,6.36,0,0,1-4.42,1.49h-9.07ZM134.5,16a2.62,2.62,0,0,0,2-.71,2.7,2.7,0,0,0,.67-2,2.67,2.67,0,0,0-.67-1.9,2.55,2.55,0,0,0-2-.73h-5.05V16Z"/><path class="cls-1" d="M161.22,15.91v3.25H148V.11h13V3.35H151.7V7.94h8v3h-8v5Z"/><path class="cls-1" d="M174.53,6.25a53.26,53.26,0,0,1-.8,6.17,13.64,13.64,0,0,1-1.4,4,5.4,5.4,0,0,1-2.2,2.22,7.13,7.13,0,0,1-3.22.67L166.7,16a3.94,3.94,0,0,0,1.59-.46,3,3,0,0,0,1.18-1.47,13.52,13.52,0,0,0,.85-3.16c.23-1.36.45-3.18.64-5.46l.46-5.36H183V19.16h-3.68V3.35h-4.51Z"/><path class="cls-1" d="M196.75.11H200l7.25,19.05h-3.81l-1.77-4.75H195l-1.74,4.75h-3.81ZM201,11.81l-2.63-7.49-2.74,7.49Z"/><path class="cls-1" d="M213.74,19.16V.11h8.07a5.35,5.35,0,0,1,2.43.55,6.24,6.24,0,0,1,1.92,1.45,6.7,6.7,0,0,1,1.26,2,6,6,0,0,1,.46,2.29,6.74,6.74,0,0,1-.43,2.35,6.55,6.55,0,0,1-1.21,2,5.94,5.94,0,0,1-1.88,1.43,5.53,5.53,0,0,1-2.41.53h-4.51v6.39Zm3.7-9.63h4.29a2.13,2.13,0,0,0,1.71-.84,3.45,3.45,0,0,0,.68-2.25,3.77,3.77,0,0,0-.21-1.3,3.12,3.12,0,0,0-.57-1,2.14,2.14,0,0,0-.81-.6,2.38,2.38,0,0,0-1-.21h-4.13Z"/><path class="cls-1" d="M237.92,19.35c-.2,0-.42,0-.65,0l-.72-.12a6.29,6.29,0,0,1-.74-.22,3.09,3.09,0,0,1-.63-.32l.48-3.06a6.28,6.28,0,0,0,.82.36,2.89,2.89,0,0,0,1.09.2,2.13,2.13,0,0,0,1.35-.44,3.52,3.52,0,0,0,1-1.59l-7-14h4l4.67,10.27L245.94.11h3.89L243.12,14.6A19.68,19.68,0,0,1,242,16.79a8,8,0,0,1-1.17,1.47,3.68,3.68,0,0,1-1.3.83A4.59,4.59,0,0,1,237.92,19.35Z"/><path class="cls-1" d="M255,9.5a9.69,9.69,0,0,1,.63-3.45A9.22,9.22,0,0,1,260.38.83a9.15,9.15,0,0,1,4-.83,8.67,8.67,0,0,1,4.55,1.15,7.35,7.35,0,0,1,2.85,3l-2.84,2A5,5,0,0,0,268,4.76a4.7,4.7,0,0,0-1.16-.87,5.39,5.39,0,0,0-1.29-.47,5.92,5.92,0,0,0-1.31-.15,5,5,0,0,0-2.43.57,5.29,5.29,0,0,0-1.72,1.46,6.53,6.53,0,0,0-1,2,7.83,7.83,0,0,0-.35,2.27,7.64,7.64,0,0,0,.4,2.43,6.43,6.43,0,0,0,1.15,2.05A5.69,5.69,0,0,0,262,15.51a4.77,4.77,0,0,0,2.26.54,6.36,6.36,0,0,0,1.34-.16,5.23,5.23,0,0,0,1.33-.51,5.54,5.54,0,0,0,1.17-.9,4.07,4.07,0,0,0,.86-1.33l3,1.74a5.75,5.75,0,0,1-1.3,1.9,8.55,8.55,0,0,1-1.91,1.38,10.06,10.06,0,0,1-2.26.86,10.29,10.29,0,0,1-2.36.29,8.13,8.13,0,0,1-3.73-.86,9.77,9.77,0,0,1-2.92-2.24,10.35,10.35,0,0,1-1.9-3.14A9.68,9.68,0,0,1,255,9.5Z"/><path class="cls-1" d="M282.57,13.47,292.28.11h2.82V19.16h-3.68V6.09l-9.58,13.07h-2.95V.11h3.68Z"/></g></g></svg>