<svg xmlns="http://www.w3.org/2000/svg" viewBox="0 0 319.9 59.37"><defs><style>.cls-1{fill:#fff;}</style></defs><g id="_1" data-name="1"><g id="Лого">
<path class="cls-1" d="M42.4,59.37H0V0H42.4A16.44,16.44,0,0,1,54.28,5a16.22,16.22,0,0,1,5.09,12A16.27,16.27,0,0,1,53.6,29.68,16.3,16.3,0,0,1,59.37,42.4a16.24,16.24,0,0,1-4.92,11.84A17,17,0,0,1,42.4,59.37ZM8.48,8.48v17H42.4a8.14,8.14,0,0,0,6-2.5,8.15,8.15,0,0,0,2.5-6,8.15,8.15,0,0,0-2.5-6,8.17,8.17,0,0,0-6-2.5ZM42.4,33.92H8.48v17H42.4a8.54,8.54,0,0,0,8.48-8.48,8.54,8.54,0,0,0-8.48-8.48Z"/>
<path class="cls-1" d="M75.48,8.48v17h42.4v8.48H75.48v17h50.88v8.49H67V0h59.36V8.48Z"/>
<path class="cls-1" d="M141.63,0V50.88h31.55v8.49h-40V0Z"/>
<path class="cls-1" d="M235.94,17V42.4a16.3,16.3,0,0,1-5,12,16.3,16.3,0,0,1-12,5H193.53a17,17,0,0,1-17-17V17a16.36,16.36,0,0,1,5-12,16.36,16.36,0,0,1,12-5H219a16.32,16.32,0,0,1,11.88,5.05A16.22,16.22,0,0,1,235.94,17ZM227.46,42.4V17A8.16,8.16,0,0,0,225,11a8.17,8.17,0,0,0-6-2.5H193.53a8.19,8.19,0,0,0-6,2.5,8.15,8.15,0,0,0-2.5,6V42.4a8.54,8.54,0,0,0,8.48,8.48H219a8.55,8.55,0,0,0,8.49-8.48Z"/><path class="cls-1" d="M302.93,0V59.37h-8.48l-42.4-45.63V59.37h-8.48V0h8.48l42.4,45V0Z"/>
<path class="cls-1" d="M311.41,59.37V0h8.49V59.37Z"/><rect class="cls-1" x="204.36" y="3.43" width="3.66" height="51.29"/>
<rect class="cls-1" x="198.36" y="23.08" width="2.5" height="11.99" rx="0.47"/><rect class="cls-1" x="211.52" y="23.08" width="2.5" height="11.99" rx="0.47"/></g></g></svg>